<?xml version="1.0" standalone="no"?>
<!DOCTYPE svg PUBLIC "-//W3C//DTD SVG 20010904//EN"
 "http://www.w3.org/TR/2001/REC-SVG-20010904/DTD/svg10.dtd">
<svg version="1.0" xmlns="http://www.w3.org/2000/svg"
 width="315.000000pt" height="315.000000pt" viewBox="0 0 315.000000 315.000000"
 preserveAspectRatio="xMidYMid meet">
<metadata>
Created by potrace 1.11, written by Peter Selinger 2001-2013
</metadata>
<g transform="translate(0.000000,315.000000) scale(0.100000,-0.100000)"
fill="#000000" stroke="none">
<path d="M1416 3138 c-232 -22 -490 -110 -685 -235 l-54 -34 -114 115 c-63 64
-116 116 -119 116 -9 0 -394 -388 -394 -397 0 -5 51 -59 114 -122 l113 -113
-55 -91 c-110 -182 -182 -397 -212 -627 -8 -65 -5 -324 4 -390 30 -203 118
-444 222 -608 19 -29 34 -56 34 -60 0 -4 -49 -57 -110 -117 -60 -60 -110 -114
-110 -120 0 -5 89 -99 197 -207 l198 -198 116 116 116 116 94 -55 c155 -90
366 -171 504 -192 420 -65 762 -4 1103 197 l84 50 114 -113 c62 -62 115 -111
118 -109 20 19 347 345 369 368 l28 29 -111 110 c-60 61 -110 116 -110 122 0
7 14 32 31 57 77 113 182 373 208 519 35 192 35 444 1 609 -40 196 -116 390
-208 532 l-40 61 119 119 119 119 -197 197 c-109 109 -202 198 -208 198 -6 0
-61 -51 -124 -114 l-114 -114 -51 33 c-123 78 -290 151 -436 189 -94 24 -121
29 -210 41 -73 10 -259 11 -344 3z m349 -493 c117 -24 302 -92 335 -122 2 -2
-117 -125 -265 -273 l-269 -269 -263 263 c-145 145 -263 268 -263 273 0 20
218 106 300 119 19 3 53 10 75 14 43 10 301 6 350 -5z m-865 -800 l265 -265
-265 -265 c-146 -146 -268 -265 -272 -265 -4 0 -17 19 -29 42 -125 244 -146
579 -54 838 23 64 77 180 84 180 3 0 125 -119 271 -265z m1652 188 c99 -214
123 -402 83 -663 -11 -79 -92 -297 -121 -329 -2 -2 -125 118 -275 267 l-271
271 268 266 c147 146 271 265 274 265 4 0 23 -35 42 -77z m-710 -1130 l267
-267 -38 -21 c-88 -51 -234 -96 -361 -113 -74 -11 -257 -9 -315 3 -100 19
-201 52 -278 88 l-88 42 263 267 c145 147 267 267 273 267 5 1 130 -119 277
-266z"/>
</g>
</svg>
