<?xml version="1.0" standalone="no"?>
<!DOCTYPE svg PUBLIC "-//W3C//DTD SVG 20010904//EN"
 "http://www.w3.org/TR/2001/REC-SVG-20010904/DTD/svg10.dtd">
<svg version="1.0" xmlns="http://www.w3.org/2000/svg"
 width="315.000000pt" height="315.000000pt" viewBox="0 0 315.000000 315.000000"
 preserveAspectRatio="xMidYMid meet">
<metadata>
Created by potrace 1.11, written by Peter Selinger 2001-2013
</metadata>
<g transform="translate(0.000000,315.000000) scale(0.100000,-0.100000)"
fill="#000000" stroke="none">
<path d="M1415 3138 c-97 -9 -199 -30 -310 -62 -103 -31 -271 -109 -373 -173
l-67 -41 -114 114 c-62 63 -115 114 -118 114 -2 0 -93 -89 -203 -198 l-199
-198 119 -120 119 -119 -40 -65 c-75 -121 -135 -262 -172 -406 -46 -174 -55
-254 -52 -439 2 -82 6 -168 10 -190 37 -222 116 -438 221 -603 19 -29 34 -56
34 -60 0 -4 -54 -61 -120 -127 l-119 -119 197 -198 c108 -109 200 -198 204
-198 4 0 59 52 123 115 64 63 120 115 125 115 5 0 28 -13 52 -29 139 -92 389
-192 543 -216 412 -65 764 -3 1093 191 40 24 77 44 80 44 4 0 57 -50 117 -110
60 -61 113 -109 117 -108 4 2 96 90 203 197 189 189 194 195 177 214 -9 11
-59 61 -109 111 -51 50 -93 94 -93 98 0 3 22 42 48 85 114 187 192 409 219
625 12 92 8 374 -6 439 -6 30 -14 69 -17 85 -25 142 -122 382 -208 512 l-35
53 111 111 110 111 -201 201 -201 201 -112 -111 -113 -112 -45 30 c-25 17 -99
56 -165 88 -261 126 -538 176 -830 148z m336 -493 c51 -9 120 -25 153 -37 75
-25 196 -79 196 -87 0 -3 -123 -129 -272 -278 l-273 -272 -268 269 c-303 305
-285 271 -167 323 87 39 157 61 225 74 17 3 48 8 70 12 76 14 242 12 336 -4z
m797 -602 c116 -239 138 -526 60 -781 -21 -71 -94 -232 -105 -232 -3 0 -127
121 -275 270 l-269 269 273 275 c150 151 274 275 276 275 1 1 19 -34 40 -76z
m-1653 -733 c-143 -143 -264 -260 -268 -260 -4 0 -24 34 -43 77 -134 294 -128
650 16 933 l22 43 266 -266 267 -267 -260 -260z m935 -415 c145 -145 262 -266
260 -268 -11 -10 -91 -47 -141 -67 -69 -26 -156 -47 -240 -59 -61 -8 -252 -7
-309 3 -101 17 -224 57 -314 103 l-59 30 259 261 c143 143 264 261 269 261 6
1 129 -118 275 -264z"/>
</g>
</svg>
