<?xml version="1.0" standalone="no"?>
<!DOCTYPE svg PUBLIC "-//W3C//DTD SVG 20010904//EN"
 "http://www.w3.org/TR/2001/REC-SVG-20010904/DTD/svg10.dtd">
<svg version="1.0" xmlns="http://www.w3.org/2000/svg"
 width="512.000000pt" height="512.000000pt" viewBox="0 0 512.000000 512.000000"
 preserveAspectRatio="xMidYMid meet">
<metadata>
Created by potrace 1.11, written by Peter Selinger 2001-2013
</metadata>
<g transform="translate(0.000000,512.000000) scale(0.100000,-0.100000)"
fill="#000000" stroke="none">
<path d="M2406 5063 c-1 -1 -37 -4 -81 -8 -73 -5 -227 -25 -300 -40 -112 -22
-328 -85 -410 -120 -16 -7 -55 -23 -85 -35 -85 -34 -274 -135 -368 -196 l-85
-56 -181 181 -181 180 -317 -318 -317 -318 165 -164 c91 -90 172 -171 180
-181 14 -14 8 -28 -59 -140 -98 -163 -162 -297 -217 -453 -108 -306 -145 -525
-145 -855 0 -102 4 -219 8 -260 8 -80 12 -106 33 -230 14 -74 77 -298 109
-385 64 -175 219 -472 283 -548 14 -16 2 -31 -169 -202 -101 -102 -184 -188
-183 -192 1 -3 142 -147 314 -320 l314 -314 187 187 188 187 35 -26 c19 -15
38 -27 42 -27 4 0 15 -6 23 -14 37 -32 215 -125 346 -181 234 -100 508 -170
755 -193 101 -9 387 -8 480 1 133 14 261 36 363 63 34 9 67 17 72 18 161 35
488 181 673 299 40 26 76 47 80 47 4 0 88 -81 187 -180 99 -99 184 -180 189
-180 5 0 150 141 322 313 l314 314 -186 186 -187 187 51 77 c209 322 353 726
388 1088 3 33 8 76 10 95 10 107 2 382 -16 505 -5 39 -12 88 -15 110 -18 131
-99 413 -160 550 -49 111 -109 229 -144 285 -22 36 -45 74 -50 85 -5 11 -21
36 -35 55 l-25 35 182 183 182 182 -315 315 c-173 173 -318 315 -321 315 -4 0
-85 -79 -180 -175 -96 -96 -177 -175 -180 -175 -3 0 -55 29 -115 65 -60 36
-165 93 -234 127 -123 59 -369 153 -433 163 -18 3 -54 12 -82 20 -47 13 -70
18 -140 29 -102 16 -122 19 -140 22 -47 9 -412 24 -419 17z m208 -794 c48 -1
106 -5 129 -9 23 -5 61 -11 84 -14 69 -9 203 -45 298 -81 80 -29 251 -107 263
-120 3 -3 -191 -201 -432 -441 l-436 -437 -436 435 -435 436 98 49 c147 74
359 144 477 159 22 3 48 7 56 10 8 3 62 8 120 11 58 3 107 7 109 9 2 2 7 2 11
-1 3 -2 46 -5 94 -6z m1469 -966 c122 -254 173 -476 174 -755 0 -240 -31 -416
-111 -630 -39 -102 -107 -240 -122 -245 -5 -1 -202 191 -438 428 l-430 430
434 434 c239 239 437 435 440 435 3 0 27 -44 53 -97z m-2633 -338 c234 -234
427 -428 429 -430 2 -3 -190 -199 -427 -436 l-432 -432 -54 114 c-76 162 -133
339 -152 474 -3 28 -9 59 -11 70 -2 11 -6 90 -8 175 -4 229 26 420 97 620 35
95 117 270 127 270 4 0 198 -191 431 -425z m1505 -1504 c234 -234 425 -428
425 -431 0 -8 -177 -91 -265 -124 -82 -30 -205 -62 -290 -76 -33 -5 -78 -12
-99 -16 -61 -9 -276 -11 -352 -3 -131 14 -169 21 -269 46 -122 30 -259 81
-366 135 l-81 41 428 428 c236 236 432 428 437 426 4 -1 199 -193 432 -426z"/>
</g>
</svg>
