<?xml version="1.0" standalone="no"?>
<!DOCTYPE svg PUBLIC "-//W3C//DTD SVG 20010904//EN"
 "http://www.w3.org/TR/2001/REC-SVG-20010904/DTD/svg10.dtd">
<svg version="1.0" xmlns="http://www.w3.org/2000/svg"
 width="512.000000pt" height="512.000000pt" viewBox="0 0 512.000000 512.000000"
 preserveAspectRatio="xMidYMid meet">
<metadata>
Created by potrace 1.11, written by Peter Selinger 2001-2013
</metadata>
<g transform="translate(0.000000,512.000000) scale(0.100000,-0.100000)"
fill="#000000" stroke="none">
<path d="M2460 4584 c-338 -31 -674 -142 -940 -312 l-95 -61 -158 157 -157
157 -267 -268 -268 -267 159 -159 159 -159 -61 -104 c-135 -228 -220 -463
-269 -743 -24 -143 -25 -500 0 -645 49 -289 139 -531 286 -774 l54 -88 -164
-164 -164 -164 268 -267 267 -268 163 163 164 164 92 -57 c253 -153 510 -246
801 -290 154 -24 433 -24 590 -1 288 43 564 143 810 295 l65 40 155 -155 155
-154 268 268 267 267 -152 152 -151 151 60 99 c212 343 312 694 314 1093 2
402 -102 774 -309 1108 -29 46 -52 87 -52 90 0 4 66 73 147 154 l148 148 -268
267 -267 268 -148 -148 c-81 -81 -150 -147 -154 -147 -4 0 -49 25 -100 57
-228 139 -496 236 -764 278 -98 15 -397 27 -484 19z m335 -645 c50 -6 133 -21
185 -34 126 -32 338 -117 354 -143 3 -5 -159 -172 -360 -373 l-364 -364 -360
360 c-198 198 -356 363 -352 367 13 13 164 84 237 111 195 74 443 102 660 76z
m1137 -816 c103 -221 139 -381 139 -623 0 -191 -33 -367 -101 -541 -27 -67
-90 -189 -99 -189 -3 0 -168 162 -366 360 l-360 360 365 365 c201 201 368 365
371 365 3 0 26 -44 51 -97z m-2212 -278 l355 -355 -350 -350 c-192 -192 -353
-350 -356 -350 -7 0 -91 180 -112 240 -108 309 -101 691 17 986 41 104 78 184
85 184 3 0 166 -160 361 -355z m1253 -1253 l358 -358 -88 -41 c-348 -163 -734
-183 -1095 -57 -106 37 -238 99 -238 112 0 8 692 702 700 702 3 0 166 -161
363 -358z"/>
</g>
</svg>
