<svg height='100px' width='100px'  fill="#FFFFFF" xmlns="http://www.w3.org/2000/svg" xmlns:xlink="http://www.w3.org/1999/xlink" version="1.0" x="0px" y="0px" viewBox="0 0 100 100" enable-background="new 0 0 100 100" xml:space="preserve"><path d="M68.730896,4.8009644c22.6312256,18.9675293,24.1704102,60.2009277-7.2893066,71.338501  c-16.6924438,5.9095459-36.3518677-1.8390503-39.8598633-20.4738159c-1.6019897-8.5096436,1.2504883-17.2876587,8.5613403-22.272583  c5.9246826-4.0397339,14.4064941-5.144165,20.423645-0.7296753c7.2180176,5.2954712,11.0596924,16.1517334,3.9376831,23.1417847  c-7.7207031,7.5777588-20.572876,3.4658203-21.9490967-7.3961792c-1.0992432,8.3688354,5.2249146,15.6949463,13.3513184,16.9313965  c7.7722778,1.1826172,15.5952759-2.3908081,20.3260498-8.5297852c9.2713013-12.0308838,4.9238892-29.5153198-7.1786499-37.7245483  c-12.2826538-8.3313599-29.1152344-6.1873169-40.3457642,2.9240112C7.9464722,30.7411499,3.4975586,44.5749512,5.7930298,58.0140991  c2.8656616,16.7772827,15.8548584,30.8362427,32.394043,34.9400024c8.3982544,2.0838013,17.2637329,1.6187134,25.5447388-0.7568359  c15.7354126-4.5139771,27.8994141-17.9026489,30.9188843-34.1257324  C98.510437,37.3338623,88.3845825,13.5950317,68.730896,4.8009644z"></path></svg>